inDegrees=no
nColumns=32
nRows=13
DataType=double
version=3
OpenSimVersion=4.5
endheader
time	pelvis_tilt	pelvis_list	pelvis_rotation	pelvis_tz	pelvis_ty	pelvis_tx	hip_flexion_r	hip_adduction_r	hip_rotation_r	knee_angle_r	ankle_angle_r	subtalar_angle_r	mtp_angle_r	hip_flexion_l	hip_adduction_l	hip_rotation_l	knee_angle_l	ankle_angle_l	subtalar_angle_l	mtp_angle_l	lumbar_extension	lumbar_bending	lumbar_rotation	arm_flex_r	arm_add_r	arm_rot_r	elbow_flex_r	arm_flex_l	arm_add_l	arm_rot_l	elbow_flex_l
0.29	-0.04136705593454972	0.09617417480801496	-0.06315029836416261	-0.04183767000000002	0.94805534	0.33448109	0.4897831566039258	-0.194356854460063	-0.1236266168327926	-1.03144354666658	0.07750274745779634	-0.2008585881508481	0	0.06464828494312135	0.1612942694651688	-0.3806660765479245	-0.02880763337242194	0.1227185038715558	-0.03282224704824216	0	-0.1106820640873211	-0.1228050325834807	0.04260337115131925	-0.117541604411932	-0.1556014182155314	-0.04458601055277922	0.5966106919305452	-0.1163245681730921	-0.2359841743127481	-0.03729534859565162	0.7110401437281771
0.2999999999999998	-0.03619112848976437	0.09229351938465016	-0.06021667072716021	-0.04300288999999999	0.9486729699999999	0.34491174	0.4972257529630979	-0.1881564197505765	-0.1351987520866399	-0.9923964508942086	0.08303737937475268	-0.2155906620867175	0	0.03978176122867064	0.1622180038213427	-0.3759267688308876	-0.01624293583068374	0.1314127524572873	-0.02628189393349944	0	-0.1187067459034577	-0.1147090238732041	0.03419957956157294	-0.1225077363402886	-0.1556996313831996	-0.04980852436693681	0.5926714059671093	-0.1028062064965022	-0.2433097826484225	-0.0344842530600158	0.7203479114997672
0.3100000000000001	-0.03140614141241345	0.08800254609091211	-0.0560182830830149	-0.04379805000000001	0.9491798	0.35540862	0.5018679486406918	-0.1800800309845533	-0.1466995009306197	-0.9481067398270855	0.0908279460411523	-0.2289819587323074	0	0.0183646692468814	0.160680127894899	-0.3696173294084348	-0.01054862094793561	0.1423385072915865	-0.02227473037012429	0	-0.1257220957846513	-0.1068852369588879	0.02430520505759122	-0.1272082898939497	-0.1537724740787984	-0.05681003797595237	0.587674585565449	-0.09025301957571379	-0.2516791971860241	-0.03151453135545031	0.7289462582573588
0.3199999999999998	-0.03181126094197519	0.08650470826566178	-0.05193454188942536	-0.04528630999999997	0.94866409	0.36590296	0.5126214658322908	-0.1765855526529637	-0.160034038945336	-0.9021238464553594	0.09745184876531968	-0.2298846908434604	0	0.0004166120123132236	0.1635755059037124	-0.3700980796527649	0.0007361777840961058	0.1485972417576761	-0.01652312069135632	0	-0.1254335432919459	-0.100397365196621	0.0162343687075174	-0.1349529256030892	-0.1561642497237865	-0.06114902755097396	0.5839343631298495	-0.07778784908550471	-0.2574119260674768	-0.03048806115991746	0.7365576040441881
0.3300000000000001	-0.02492944111742967	0.08087367875462795	-0.04626727638597364	-0.04611976999999998	0.94905091	0.37618746	0.5099403369375365	-0.1676771352383188	-0.1753456890783041	-0.8466724190203845	0.09839835670117239	-0.2297554746941573	0	-0.02228201851601477	0.1598513270581959	-0.3637166567433076	0.004937039558653915	0.1542265590082836	-0.01390560101932259	0	-0.1357028445389192	-0.09107282358918872	0.003896836938033461	-0.1376859173056324	-0.1540516916779995	-0.0685061399523115	0.5821878309969346	-0.06413130829577096	-0.2656104157990415	-0.02855100993305251	0.7438213092164858
0.3399999999999999	-0.02268951127887368	0.07964023160729802	-0.04077791183260575	-0.04717321999999999	0.94861282	0.38644224	0.5131177468889698	-0.1625178182255796	-0.1881434509070366	-0.7905465028127913	0.09551866466447838	-0.2270337546769893	0	-0.04045759512654367	0.1609252665441915	-0.3623271318834211	0.01118513275229413	0.1637579102638383	-0.003062433768964366	0	-0.1396949830863627	-0.08614235327530639	-0.006143395255136202	-0.1422147578625665	-0.1530279384365133	-0.07752368180950937	0.5788365483783577	-0.04988990994262193	-0.2736898374237059	-0.02727258243590544	0.7503908896148824
0.3500000000000001	-0.02198943905516655	0.08066041734649744	-0.03906092971198535	-0.04778597999999998	0.9476187	0.39691801	0.5184460285284629	-0.1575326477221434	-0.1953074670612505	-0.734118298894878	0.08803690713114869	-0.2176353826751379	0	-0.05704083350945201	0.1642297788766709	-0.3544440440916429	0.0170360012254852	0.1746462550128186	-0.001934357485697426	0	-0.1398227958164142	-0.08468034698597973	-0.01123368938288094	-0.1484055058201715	-0.153455238147034	-0.08165345998882488	0.5760917043193974	-0.0361643960097774	-0.2817642852090679	-0.02890263495973357	0.7568451990446993
0.3599999999999999	-0.02162678638957619	0.0804804729702996	-0.03452336789051599	-0.04849118999999999	0.94665085	0.40712651	0.5207912974320708	-0.1517044357170384	-0.2046130706245682	-0.6720780536934252	0.07386922293349057	-0.1956011351139936	0	-0.07099506254332781	0.1653069329100829	-0.3517583188723034	0.01915101006260785	0.1835787204465621	0.001868651773479296	0	-0.1421270093400274	-0.08020954089560249	-0.02328453424209691	-0.1509953862836377	-0.1523820526432752	-0.08669026867617517	0.575398275582802	-0.02480975949852346	-0.2907319572499498	-0.02986685187884165	0.7636017214847441
0.3700000000000001	-0.013691747560225	0.0793822301821992	-0.03096015630548825	-0.04894074000000001	0.94618504	0.41783021	0.5121500284903164	-0.1454069802488286	-0.2163423335076494	-0.6077284591625025	0.07565753056924941	-0.1606626355070038	0	-0.09321983391081133	0.1648779475605706	-0.3418516504436035	0.01945707449089608	0.1978361440638371	0.0001829162651955373	0	-0.151244758054498	-0.07685822878096137	-0.0317520448357738	-0.154167406483808	-0.1499040284117071	-0.09680078126406537	0.5729600925056679	-0.01111791279241697	-0.2979594058250312	-0.03105610439585195	0.7699120503269837
0.3799999999999999	-0.01510721963362893	0.08129411846448498	-0.02876288471029882	-0.04934393000000001	0.94451649	0.42821158	0.5148654740488235	-0.1401865398858224	-0.2210048790261898	-0.5442627325260455	0.07079714796573819	-0.1218214706094764	0	-0.105935028925021	0.1678147031371585	-0.3381025418386504	0.02233835198468261	0.2089302074556244	0.003728819675997573	0	-0.1499487262938507	-0.07621694454829618	-0.03835464145309746	-0.1583595936229175	-0.1492009631887128	-0.1007452311331591	0.5723937506166882	0.0009654794902889713	-0.3046323296118992	-0.03167154955254012	0.7761054775395234
0.3900000000000001	-0.01275841705263171	0.08624982092229831	-0.02783167916857124	-0.04970924000000002	0.94292826	0.43894204	0.5133028003098344	-0.1389568835202272	-0.2286870342170359	-0.4820148496922732	0.07337561310323173	-0.07314977308307728	0	-0.1226066212851859	0.1742660774467724	-0.333901067453525	0.02422366571839899	0.2195022329197633	0.00296600066260025	0	-0.1519695625750564	-0.07916104551757411	-0.04482027510270013	-0.163555071763363	-0.1484944275530338	-0.1054332909219027	0.5723565724856269	0.01165673921667307	-0.3132224947895564	-0.03549770850984944	0.7845994838020418
0.3999999999999999	-0.01004780861532235	0.09082011905890837	-0.02768422832204234	-0.04979935999999999	0.94125641	0.44958146	0.510120422802284	-0.1362589275570885	-0.2337309277194188	-0.4200170109301891	0.07293711448756558	-0.02675221845354279	0	-0.1390145418683302	0.1797081093494679	-0.3283665580586822	0.02481892247709643	0.2302369642599585	0.001702401482778127	0	-0.1540590908268304	-0.08208989737064444	-0.04847711652768083	-0.1686364586032701	-0.147656957665936	-0.1089713253412392	0.5731321175672651	0.02465645658381236	-0.3204730297073184	-0.03806776203301301	0.7899998503321692
0.4100000000000001	-0.01174547634554616	0.09640906099082031	-0.02818903941526606	-0.04969556	0.93905446	0.4599400499999999	0.5106428548252774	-0.133267200392248	-0.234359772990505	-0.357715419428411	0.06726241553481355	0.01283022739628057	0	-0.1514207048709245	0.1864045675050358	-0.3253648160200608	0.0280530825072901	0.2380120406056479	0.001709578451195253	0	-0.1524348064416472	-0.08648377510718031	-0.05239036776373052	-0.1713443502022416	-0.145675023028428	-0.1121343649497433	0.5735070704901954	0.03683976093768042	-0.3273616240043885	-0.04011509241226401	0.7961259889933922
